# xmcd
#
# Track frame offsets:
# 150
# 15375
# 33053
# 49027
# 64734
# 82128
# 96866
# 115013
# 130233
# 144126
# 160051
# 174769
#
# Disc length: 2503 seconds
#
#
# Revision: 1
# Processed by: cddbd v1.5.1PL0 Copyright (c) Steve Scherf et al.
# Submitted via: FreeRIP 2.942 
#
DISCID=8809c50c
DTITLE=Gino and Geno (www.estilocountry.net) - A Galera do Chapéu
DYEAR=2005
DGENRE=Country
TTITLE0=01 - Agito ae
TTITLE1=02 - Acidente de Amor
TTITLE2=03 - Bebo pra Carai
TTITLE3=04 - Cara Boa
TTITLE4=05 - O Gaviao
TTITLE5=06 - Galera do Chapeu
TTITLE6=07 - A Mulher e a Bebida
TTITLE7=08 - Que Amor e Esse
TTITLE8=09 - Que Bixo que e
TTITLE9=10 - Saudade Cigana
TTITLE10=11 - To Ficando com ELa
TTITLE11=12 - Uma Noticia para te Dar
EXTD=YEAR: 2005
EXTT0=
EXTT1=
EXTT2=
EXTT3=
EXTT4=
EXTT5=
EXTT6=
EXTT7=
EXTT8=
EXTT9=
EXTT10=
EXTT11=
PLAYORDER=
